<mxfile host="Electron" agent="Mozilla/5.0 (Windows NT 10.0; Win64; x64) AppleWebKit/537.36 (KHTML, like Gecko) draw.io/25.0.2 Chrome/128.0.6613.186 Electron/32.2.5 Safari/537.36" version="25.0.2">
  <diagram name="Page-1" id="5f0bae14-7c28-e335-631c-24af17079c00">
    <mxGraphModel dx="562" dy="307" grid="1" gridSize="10" guides="1" tooltips="1" connect="1" arrows="1" fold="1" page="1" pageScale="1" pageWidth="1100" pageHeight="850" background="none" math="0" shadow="0">
      <root>
        <mxCell id="0" />
        <mxCell id="1" parent="0" />
        <mxCell id="Ygb0bweb5wxViKGXWp5h-23" value="&amp;lt;&amp;lt;component&amp;gt;&amp;gt;&lt;br&gt;&amp;lt;&amp;lt;C4 system&amp;gt;&amp;gt;&lt;br&gt;&lt;b&gt;Healthcare System&lt;/b&gt;" style="html=1;whiteSpace=wrap;fillColor=#1ba1e2;fontColor=#ffffff;strokeColor=#006EAF;" parent="1" vertex="1">
          <mxGeometry x="180" y="310" width="320" height="110" as="geometry" />
        </mxCell>
        <mxCell id="dj6CJQSSYTL0QDnudYro-6" value="" style="group;rotation=-180;" parent="1" vertex="1" connectable="0">
          <mxGeometry x="247" y="415" width="20" height="75" as="geometry" />
        </mxCell>
        <mxCell id="dj6CJQSSYTL0QDnudYro-8" value="" style="edgeStyle=orthogonalEdgeStyle;rounded=0;orthogonalLoop=1;jettySize=auto;html=1;entryX=0.5;entryY=0;entryDx=0;entryDy=0;endArrow=none;endFill=0;fontColor=#000000;strokeColor=#000000;startArrow=halfCircle;startFill=0;strokeWidth=2;" parent="dj6CJQSSYTL0QDnudYro-6" edge="1">
          <mxGeometry relative="1" as="geometry">
            <mxPoint x="10" y="55" as="sourcePoint" />
            <mxPoint x="10" y="10" as="targetPoint" />
          </mxGeometry>
        </mxCell>
        <mxCell id="dj6CJQSSYTL0QDnudYro-11" value="Public Email&amp;nbsp;&lt;div&gt;API&lt;/div&gt;" style="edgeLabel;html=1;align=center;verticalAlign=middle;resizable=0;points=[];labelBackgroundColor=none;fontStyle=1" parent="dj6CJQSSYTL0QDnudYro-8" vertex="1" connectable="0">
          <mxGeometry x="-0.146" relative="1" as="geometry">
            <mxPoint y="-11" as="offset" />
          </mxGeometry>
        </mxCell>
        <mxCell id="dj6CJQSSYTL0QDnudYro-10" value="" style="rounded=0;whiteSpace=wrap;html=1;fillColor=#1ba1e2;fontColor=#ffffff;strokeColor=#006EAF;rotation=-180;" parent="dj6CJQSSYTL0QDnudYro-6" vertex="1">
          <mxGeometry x="5" width="10" height="10" as="geometry" />
        </mxCell>
        <mxCell id="-83bCuN38Bdld3bD9hPa-22" style="edgeStyle=orthogonalEdgeStyle;rounded=0;orthogonalLoop=1;jettySize=auto;html=1;entryX=0.5;entryY=0;entryDx=0;entryDy=0;endArrow=none;endFill=0;strokeColor=#000000;" parent="1" source="-83bCuN38Bdld3bD9hPa-8" target="Ygb0bweb5wxViKGXWp5h-14" edge="1">
          <mxGeometry relative="1" as="geometry" />
        </mxCell>
        <mxCell id="-83bCuN38Bdld3bD9hPa-25" value="&lt;div&gt;&lt;span style=&quot;background-color: initial;&quot;&gt;UI&lt;/span&gt;&lt;br&gt;&lt;/div&gt;" style="edgeLabel;html=1;align=center;verticalAlign=middle;resizable=0;points=[];labelBackgroundColor=none;fontStyle=1" parent="-83bCuN38Bdld3bD9hPa-22" vertex="1" connectable="0">
          <mxGeometry x="-0.3286" y="-1" relative="1" as="geometry">
            <mxPoint as="offset" />
          </mxGeometry>
        </mxCell>
        <mxCell id="-83bCuN38Bdld3bD9hPa-8" value="" style="ellipse;whiteSpace=wrap;html=1;fillColor=#1ba1e2;fontColor=#ffffff;strokeColor=#006EAF;" parent="1" vertex="1">
          <mxGeometry x="247" y="240" width="20" height="20" as="geometry" />
        </mxCell>
        <mxCell id="Ygb0bweb5wxViKGXWp5h-14" value="" style="rounded=0;whiteSpace=wrap;html=1;fillColor=#1ba1e2;fontColor=#ffffff;strokeColor=#006EAF;" parent="1" vertex="1">
          <mxGeometry x="252" y="305" width="10" height="10" as="geometry" />
        </mxCell>
        <mxCell id="SZSmeih6M7OEZdfGZnqY-1" value="" style="group;rotation=-180;" parent="1" vertex="1" connectable="0">
          <mxGeometry x="410" y="415" width="20" height="75" as="geometry" />
        </mxCell>
        <mxCell id="SZSmeih6M7OEZdfGZnqY-2" value="" style="edgeStyle=orthogonalEdgeStyle;rounded=0;orthogonalLoop=1;jettySize=auto;html=1;entryX=0.5;entryY=0;entryDx=0;entryDy=0;endArrow=none;endFill=0;fontColor=#000000;strokeColor=#000000;startArrow=halfCircle;startFill=0;strokeWidth=2;" parent="SZSmeih6M7OEZdfGZnqY-1" edge="1">
          <mxGeometry relative="1" as="geometry">
            <mxPoint x="10" y="55" as="sourcePoint" />
            <mxPoint x="10" y="10" as="targetPoint" />
          </mxGeometry>
        </mxCell>
        <mxCell id="SZSmeih6M7OEZdfGZnqY-3" value="Public Auth&lt;div&gt;&lt;span style=&quot;background-color: initial;&quot;&gt;API&lt;/span&gt;&lt;/div&gt;" style="edgeLabel;html=1;align=center;verticalAlign=middle;resizable=0;points=[];labelBackgroundColor=none;fontStyle=1" parent="SZSmeih6M7OEZdfGZnqY-2" vertex="1" connectable="0">
          <mxGeometry x="-0.146" relative="1" as="geometry">
            <mxPoint y="-11" as="offset" />
          </mxGeometry>
        </mxCell>
        <mxCell id="7BiydrtuUb6pcGY5F73n-1" value="" style="rounded=0;whiteSpace=wrap;html=1;fillColor=#1ba1e2;fontColor=#ffffff;strokeColor=#006EAF;rotation=-180;" vertex="1" parent="SZSmeih6M7OEZdfGZnqY-1">
          <mxGeometry x="5" width="10" height="10" as="geometry" />
        </mxCell>
        <mxCell id="TSj-RJ_nXf2L_JCBn3uH-1" value="" style="edgeStyle=orthogonalEdgeStyle;rounded=0;orthogonalLoop=1;jettySize=auto;html=1;entryX=0.5;entryY=0;entryDx=0;entryDy=0;endArrow=none;endFill=0;fontColor=#000000;strokeColor=#000000;startArrow=halfCircle;startFill=0;strokeWidth=2;" parent="1" edge="1">
          <mxGeometry relative="1" as="geometry">
            <mxPoint x="340" y="470" as="sourcePoint" />
            <mxPoint x="340" y="425" as="targetPoint" />
          </mxGeometry>
        </mxCell>
        <mxCell id="TSj-RJ_nXf2L_JCBn3uH-2" value="Persistence&lt;div&gt;API&lt;/div&gt;" style="edgeLabel;html=1;align=center;verticalAlign=middle;resizable=0;points=[];labelBackgroundColor=none;fontStyle=1" parent="TSj-RJ_nXf2L_JCBn3uH-1" vertex="1" connectable="0">
          <mxGeometry x="-0.146" relative="1" as="geometry">
            <mxPoint y="-11" as="offset" />
          </mxGeometry>
        </mxCell>
        <mxCell id="TSj-RJ_nXf2L_JCBn3uH-3" value="" style="rounded=0;whiteSpace=wrap;html=1;fillColor=#1ba1e2;fontColor=#ffffff;strokeColor=#006EAF;rotation=-180;" parent="1" vertex="1">
          <mxGeometry x="335" y="415" width="10" height="10" as="geometry" />
        </mxCell>
      </root>
    </mxGraphModel>
  </diagram>
</mxfile>
